<?xml version="1.0" encoding="UTF-8" standalone="no"?>
<!-- Created with Inkscape (http://www.inkscape.org/) -->

<svg
   width="938.71875"
   height="191.57265"
   viewBox="0 0 248.36934 50.68693"
   version="1.1"
   id="svg1"
   xmlns="http://www.w3.org/2000/svg">
  <defs
     id="defs1">
    <linearGradient
       id="linearGradient164897">
      <stop
         style="stop-color:#000000;stop-opacity:1;"
         offset="0"
         id="stop164895" />
    </linearGradient>
    <clipPath
       clipPathUnits="userSpaceOnUse"
       id="clipPath20363-0-8-1-8-8">
      <g
         id="use20365-9-7-8-1-5"
         style="fill:#000000">
        <path
           d="m 75.14768,80.116422 c -0.0082,0.001 -0.03746,0.0046 -0.06415,0.0077 -0.402853,0.04567 -0.782613,0.274042 -1.000715,0.601455 -0.259161,0.387969 -0.298162,0.924763 -0.104179,1.417422 0.120088,0.303807 0.315609,0.58298 0.627627,0.896024 0.225804,0.225802 0.390535,0.365903 0.918605,0.780558 0.371034,0.29149 0.499332,0.400285 0.656879,0.558346 0.146261,0.146259 0.243764,0.27045 0.303296,0.38643 0.01233,0.02464 0.02359,0.04465 0.02513,0.04465 0.0016,0 0.01027,-0.01488 0.0195,-0.03336 0.07698,-0.156009 0.235037,-0.341782 0.465461,-0.547057 0.129836,-0.115467 0.226312,-0.193985 0.5799,-0.471619 0.461865,-0.362823 0.619416,-0.497791 0.841625,-0.720514 0.240172,-0.240685 0.397719,-0.44442 0.52499,-0.67792 0.212461,-0.390535 0.275581,-0.832389 0.175509,-1.227029 -0.05747,-0.225803 -0.166272,-0.42184 -0.325872,-0.586573 -0.268398,-0.277121 -0.638917,-0.43159 -1.03356,-0.43159 -0.461354,0 -0.857534,0.211433 -1.0859,0.579901 -0.05748,0.0934 -0.120088,0.234526 -0.147799,0.334085 -0.01078,0.03797 -0.01899,0.05183 -0.01899,0.03131 0,-0.02309 -0.05594,-0.171404 -0.09443,-0.249922 -0.188338,-0.384377 -0.518834,-0.619929 -0.962737,-0.685104 -0.03849,-0.0056 -0.270962,-0.01129 -0.300215,-0.0072 z"
           id="path167576"
           style="fill:#000000;stroke:none;stroke-width:0.000513188" />
      </g>
    </clipPath>
    <clipPath
       clipPathUnits="userSpaceOnUse"
       id="clipPath20363-0-8-1-8-8-4">
      <g
         id="use20365-9-7-8-1-5-6"
         style="fill:#ff80e5">
        <path
           d="m 75.14768,80.116422 c -0.0082,0.001 -0.03746,0.0046 -0.06415,0.0077 -0.402853,0.04567 -0.782613,0.274042 -1.000715,0.601455 -0.259161,0.387969 -0.298162,0.924763 -0.104179,1.417422 0.120088,0.303807 0.315609,0.58298 0.627627,0.896024 0.225804,0.225802 0.390535,0.365903 0.918605,0.780558 0.371034,0.29149 0.499332,0.400285 0.656879,0.558346 0.146261,0.146259 0.243764,0.27045 0.303296,0.38643 0.01233,0.02464 0.02359,0.04465 0.02513,0.04465 0.0016,0 0.01027,-0.01488 0.0195,-0.03336 0.07698,-0.156009 0.235037,-0.341782 0.465461,-0.547057 0.129836,-0.115467 0.226312,-0.193985 0.5799,-0.471619 0.461865,-0.362823 0.619416,-0.497791 0.841625,-0.720514 0.240172,-0.240685 0.397719,-0.44442 0.52499,-0.67792 0.212461,-0.390535 0.275581,-0.832389 0.175509,-1.227029 -0.05747,-0.225803 -0.166272,-0.42184 -0.325872,-0.586573 -0.268398,-0.277121 -0.638917,-0.43159 -1.03356,-0.43159 -0.461354,0 -0.857534,0.211433 -1.0859,0.579901 -0.05748,0.0934 -0.120088,0.234526 -0.147799,0.334085 -0.01078,0.03797 -0.01899,0.05183 -0.01899,0.03131 0,-0.02309 -0.05594,-0.171404 -0.09443,-0.249922 -0.188338,-0.384377 -0.518834,-0.619929 -0.962737,-0.685104 -0.03849,-0.0056 -0.270962,-0.01129 -0.300215,-0.0072 z"
           id="path167572"
           style="fill:#ff80e5;stroke:none;stroke-width:0.000513188" />
      </g>
    </clipPath>
    <clipPath
       clipPathUnits="userSpaceOnUse"
       id="clipPath20363-0-8-1-8-8-69">
      <g
         style="fill:#ff80e5"
         id="use20365-9-7-8-1-5-69">
        <path
           id="path167488"
           style="fill:#ff80e5;stroke:none;stroke-width:0.000513188"
           d="m 75.14768,80.116422 c -0.0082,0.001 -0.03746,0.0046 -0.06415,0.0077 -0.402853,0.04567 -0.782613,0.274042 -1.000715,0.601455 -0.259161,0.387969 -0.298162,0.924763 -0.104179,1.417422 0.120088,0.303807 0.315609,0.58298 0.627627,0.896024 0.225804,0.225802 0.390535,0.365903 0.918605,0.780558 0.371034,0.29149 0.499332,0.400285 0.656879,0.558346 0.146261,0.146259 0.243764,0.27045 0.303296,0.38643 0.01233,0.02464 0.02359,0.04465 0.02513,0.04465 0.0016,0 0.01027,-0.01488 0.0195,-0.03336 0.07698,-0.156009 0.235037,-0.341782 0.465461,-0.547057 0.129836,-0.115467 0.226312,-0.193985 0.5799,-0.471619 0.461865,-0.362823 0.619416,-0.497791 0.841625,-0.720514 0.240172,-0.240685 0.397719,-0.44442 0.52499,-0.67792 0.212461,-0.390535 0.275581,-0.832389 0.175509,-1.227029 -0.05747,-0.225803 -0.166272,-0.42184 -0.325872,-0.586573 -0.268398,-0.277121 -0.638917,-0.43159 -1.03356,-0.43159 -0.461354,0 -0.857534,0.211433 -1.0859,0.579901 -0.05748,0.0934 -0.120088,0.234526 -0.147799,0.334085 -0.01078,0.03797 -0.01899,0.05183 -0.01899,0.03131 0,-0.02309 -0.05594,-0.171404 -0.09443,-0.249922 -0.188338,-0.384377 -0.518834,-0.619929 -0.962737,-0.685104 -0.03849,-0.0056 -0.270962,-0.01129 -0.300215,-0.0072 z" />
      </g>
    </clipPath>
  </defs>
  <rect
     style="display:inline;fill:#80b3ff;fill-opacity:1;stroke-width:0.123951"
     id="rectWaifuClub"
     width="239.15164"
     height="1.2902712"
     x="8.2599869"
     y="40.756645" />
  <g
     aria-label="WaifuClub"
     id="textWaifuClub"
     style="font-weight:bold;font-size:50.8px;line-height:1.25;font-family:'Century Gothic';-inkscape-font-specification:'Century Gothic Bold';letter-spacing:0px;word-spacing:0px;fill:#80b3ff;stroke-width:0.264583"
     transform="translate(-3.2623331,3.5310505)">
    <path
       id="path185759"
       style="fill:#80b3ff;stroke-width:0.999999"
       d="m 387.33008,-13.345703 c -7.37501,0 -13.09375,1.65625 -17.15625,4.9687499 -4,3.2499997 -6.34375,7.68750006 -7.03125,13.3125 -0.37499,2.4374997 -0.59374,10.3437501 -0.65625,23.7187501 h -9.09375 v 21.75 h 9.09375 V 130.6543 h 25.59375 V 50.404297 h 16.21875 v -21.75 h -16.21875 l 0.0937,-12.75 c 0,-2.9375 0.50001,-4.875 1.5,-5.8125 1.37502,-1.2500005 3.56251,-1.8750001 6.5625,-1.8750001 2.375,0 5.40624,0.5312499 9.09375,1.59375 v -19.5 c -6.6875,-2.4374999 -12.6875,-3.6562499 -18,-3.6562499 z m 216.65625,2.625 c -13.37499,0 -25.87501,3.2500002 -37.5,9.74999988 C 554.92382,5.5292965 546.01758,14.123047 539.76758,24.810547 c -6.18749,10.687499 -9.28125,22.906248 -9.28125,36.65625 0,16.372233 4.0879,30.456743 12.17578,42.302733 0.76734,-0.17625 1.55207,-0.32048 2.35351,-0.42578 1.10986,-0.14581 4.18624,-0.19998 5.41016,-0.0957 8.02182,0.68388 15.19234,4.98411 19.23828,11.53515 1.80151,2.91692 2.90084,6.21401 3.38477,10.15235 0.0949,0.77109 0.13087,2.2059 0.11719,3.5664 9.09647,3.71454 19.22624,5.6211 30.44531,5.6211 11.62499,0 21.96875,-1.90625 31.03125,-5.71875 9.0625,-3.875 18.68751,-10.78125 28.875,-20.71875 l -17.8125,-18.562503 c -7.56251,7.500001 -14.50001,12.687503 -20.8125,15.562503 -6.31249,2.8125 -13.28123,4.21875 -20.90625,4.21875 -8.9375,0 -17.06252,-2.03125 -24.375,-6.09375 -7.31251,-4.06251 -12.96875,-9.656254 -16.96875,-16.781253 -4,-7.125002 -6,-15.28125 -6,-24.46875 0,-13.1875 4.50001,-24.281251 13.5,-33.28125 9.0625,-9 20.1875,-13.5 33.375,-13.5 15.62499,0 29.68749,6.59375 42.1875,19.78125 l 18.375,-17.53125 c -7.625,-8.875 -16.71873,-15.7187504 -27.28125,-20.5312501 -10.49998,-4.8125 -21.43748,-7.2187499 -32.8125,-7.2187499 z m 77.53125,0 V 130.6543 h 25.59375 V -10.720703 Z m 163.96875,0 V 130.6543 h 25.40625 v -10.78125 c 4.99999,4.75 10.03125,8.1875 15.09375,10.3125 5.0625,2.0625 10.53125,3.09375 16.40625,3.09375 13.1875,0 24.59375,-5.09375 34.21875,-15.28125 9.62499,-10.25 14.4375,-22.968753 14.4375,-38.156253 0,-15.749999 -4.65627,-28.656249 -13.96875,-38.71875 -9.31251,-10.062499 -20.625,-15.09375 -33.9375,-15.09375 -6.125,0 -11.87501,1.15625 -17.25,3.46875 -5.37502,2.3125 -10.37502,5.781249 -15,10.40625 v -50.625 z M 12.330078,-7.2519531 43.548828,130.6543 h 24.9375 l 24.9375,-89.156253 25.406252,89.156253 h 25.21875 L 175.08008,-7.2519531 h -25.875 L 129.51758,80.779297 104.58008,-7.2519531 H 82.736328 L 58.080078,80.779297 38.205078,-7.2519531 Z M 236.01758,26.029297 c -13.3125,0 -24.625,5.031251 -33.9375,15.09375 -9.3125,10.062501 -13.96875,22.968751 -13.96875,38.71875 0,15.1875 4.8125,27.906253 14.4375,38.156253 9.625,10.1875 21.03125,15.28125 34.21875,15.28125 5.875,0 11.3125,-1.03125 16.3125,-3.09375 5.0625,-2.125 10.09375,-5.5625 15.09375,-10.3125 v 10.78125 h 25.5 V 28.654297 h -25.5 v 11.25 c -4.5625,-4.625001 -9.53125,-8.09375 -14.90625,-10.40625 -5.375,-2.3125 -11.125,-3.46875 -17.25,-3.46875 z m 80.71875,2.625 V 130.6543 h 25.6875 V 28.654297 Z m 102.46875,0 v 42.46875 c 0,16.312501 1,27.562494 3,33.750003 2.8125,8.9375 7.65624,15.90625 14.53125,20.90625 6.9375,5 16,7.5 27.1875,7.5 5.58593,0 10.59288,-0.67882 15.11523,-1.92578 -0.30685,-2.6839 -0.2391,-5.37594 0.20899,-8.05079 0.66213,-3.95484 2.3491,-7.79235 4.74804,-10.80273 2.4381,-3.05955 5.85343,-5.64189 9.60352,-7.25977 3.01788,-1.30196 6.52177,-2.0571 9.52344,-2.05273 1.14955,0.002 2.18944,0.0387 3.07812,0.0996 1.73155,-7.050228 2.62891,-17.43763 2.62891,-31.414063 v -43.21875 h -25.6875 v 49.96875 c 0,9.625 -0.53125,15.906251 -1.59375,18.84375 -1.43751,3.937503 -3.65626,6.937503 -6.65625,9.000003 -2.9375,2 -6.53125,3 -10.78125,3 -4.25001,0 -7.84375,-1.03125 -10.78125,-3.09375 -2.87501,-2.0625 -4.96877,-4.9375 -6.28125,-8.625003 -1.31251,-3.750002 -1.96875,-10.406251 -1.96875,-19.96875 v -49.125 z m 310.96875,0 v 42.46875 c 0,16.312501 1,27.562494 3,33.750003 2.8125,8.9375 7.65626,15.90625 14.53125,20.90625 6.9375,5 16,7.5 27.1875,7.5 10.31251,0 18.8125,-2.125 25.5,-6.375 6.68749,-4.3125 11.74999,-10.46875 15.1875,-18.46875 2.8125,-6.5625 4.21875,-18.750003 4.21875,-36.562503 v -25.59375 c -0.45053,-0.784933 -1.05582,-1.545129 -2.00391,-2.513672 -1.14818,-1.172874 -2.06327,-1.957675 -4.87304,-4.175781 -3.97629,-3.138953 -4.90766,-3.917271 -6.41407,-5.365235 -1.56438,-1.503722 -2.7985,-2.941536 -3.7207,-4.33789 -0.26891,-0.407173 -0.51348,-0.8185 -0.73828,-1.232422 h -7.9375 v 49.96875 c 0,9.625 -0.53125,15.906251 -1.59375,18.84375 -1.43748,3.937503 -3.65624,6.937503 -6.65625,9.000003 -2.9375,2 -6.53125,3 -10.78125,3 -4.25001,0 -7.84375,-1.03125 -10.78125,-3.09375 -2.87499,-2.0625 -4.96875,-4.9375 -6.28125,-8.625003 -1.31251,-3.750002 -1.96875,-10.406251 -1.96875,-19.96875 v -49.125 z m -488.90625,21 c 8.125,0 14.84375,2.750001 20.15625,8.25 5.3125,5.500001 7.96875,12.687499 7.96875,21.5625 0,9.062498 -2.65625,16.406244 -7.96875,22.031253 -5.3125,5.5625 -12,8.34375 -20.0625,8.34375 -7.8125,0 -14.40625,-2.84375 -19.78125,-8.53125 -5.3125,-5.68751 -7.96875,-12.937503 -7.96875,-21.750003 0,-8.749999 2.625,-15.906251 7.875,-21.46875 5.25,-5.625 11.84375,-8.4375 19.78125,-8.4375 z m 656.53125,0 c 8,0 14.62498,2.8125 19.875,8.4375 5.24999,5.562499 7.875,12.718751 7.875,21.46875 0,8.8125 -2.68751,16.062493 -8.0625,21.750003 -5.31251,5.6875 -11.87499,8.53125 -19.6875,8.53125 -8.06249,0 -14.75,-2.78125 -20.0625,-8.34375 -5.31251,-5.625009 -7.96875,-12.968755 -7.96875,-22.031253 0,-8.875001 2.65624,-16.062499 7.96875,-21.5625 5.3125,-5.499999 12.00001,-8.25 20.0625,-8.25 z"
       transform="scale(0.26458333)" />
  </g>
  <path
     style="fill:#ffaaee;stroke-width:0.0138829"
     d="m 135.81769,50.517126 c -0.23329,-0.438292 -0.55132,-0.847103 -1.07589,-1.382987 -0.57895,-0.591409 -1.04053,-0.986875 -2.45733,-2.105329 -2.00501,-1.58278 -2.47409,-1.975235 -3.23367,-2.705353 -0.78883,-0.758234 -1.41114,-1.484018 -1.87615,-2.188114 -1.02341,-1.549593 -1.41544,-3.205273 -1.14343,-4.829044 0.1399,-0.835605 0.49636,-1.646423 1.00322,-2.282476 0.51514,-0.646444 1.23683,-1.191934 2.02918,-1.53377 0.63763,-0.275087 1.37802,-0.434692 2.01223,-0.433769 0.43569,6.5e-4 0.80944,0.02302 1.02532,0.06144 1.67233,0.297533 2.89954,1.263831 3.55373,2.79819 0.0932,0.218482 0.20271,0.518775 0.22855,0.626377 0.0136,0.06001 0.0271,0.08894 0.0343,0.07803 0.006,-0.0095 0.0338,-0.08915 0.061,-0.17697 0.13118,-0.420886 0.39326,-0.984932 0.61279,-1.318876 0.74405,-1.131765 1.91948,-1.848869 3.33551,-2.034919 0.2345,-0.03081 0.88454,-0.04236 1.14314,-0.02033 1.69491,0.144494 3.21007,1.052867 4.06492,2.437017 0.38064,0.616305 0.61288,1.312932 0.71513,2.145049 0.0349,0.283592 0.0351,1.002787 3.9e-4,1.297914 -0.13933,1.184865 -0.52404,2.191464 -1.25352,3.278973 -0.4193,0.625104 -0.95505,1.249754 -1.69457,1.975719 -0.78136,0.767044 -1.27886,1.188058 -3.10044,2.623824 -1.68189,1.325643 -2.09446,1.676058 -2.70742,2.299494 -0.53152,0.540613 -0.84708,0.947606 -1.0887,1.404234 -0.0454,0.08566 -0.086,0.155635 -0.0903,0.15548 -0.004,-1.53e-4 -0.0485,-0.07656 -0.0981,-0.169819 z"
     id="pathCoeur" />
  <path
     style="fill:#ffaaee;stroke-width:0.00728462"
     d="M 83.883215,9.3771404 C 83.760803,9.1471604 83.593927,8.9326494 83.318675,8.6514608 83.014889,8.3411373 82.77269,8.1336287 82.029268,7.5467546 80.977201,6.7162398 80.731065,6.5103111 80.332499,6.1272043 79.918585,5.7293445 79.592047,5.3485118 79.348048,4.9790593 78.811045,4.1659584 78.60534,3.2971915 78.748068,2.4451679 c 0.07341,-0.4384579 0.26045,-0.8639096 0.526408,-1.1976587 0.270305,-0.33920132 0.648989,-0.62543032 1.06475,-0.80479822 0.334576,-0.1443434 0.723073,-0.2280911 1.055855,-0.2276068 0.228616,3.41e-4 0.424729,0.012079 0.538006,0.032239 0.877503,0.1561212 1.521443,0.6631562 1.864709,1.46826352 0.0489,0.1146416 0.106366,0.2722111 0.119925,0.3286719 0.0072,0.031489 0.01422,0.046668 0.018,0.040944 0.0031,-0.00498 0.01774,-0.046779 0.03201,-0.09286 0.06883,-0.2208469 0.206351,-0.5168126 0.321543,-0.6920393 0.390417,-0.59385862 1.007187,-0.97013672 1.750205,-1.06776062 0.123047,-0.016167 0.464136,-0.022228 0.599828,-0.010667 0.889351,0.075819 1.684385,0.5524594 2.132941,1.27874922 0.199729,0.3233869 0.32159,0.6889204 0.375242,1.1255481 0.01831,0.1488061 0.01842,0.5261814 2.04e-4,0.6810402 -0.07311,0.6217212 -0.274973,1.1499029 -0.657745,1.7205395 -0.220015,0.328004 -0.501133,0.6557697 -0.889174,1.0366974 -0.409993,0.4024826 -0.671042,0.6233966 -1.626859,1.3767704 -0.88252,0.6955902 -1.099003,0.8794595 -1.420635,1.2065883 -0.278899,0.2836696 -0.444479,0.4972266 -0.571261,0.7368286 -0.02383,0.04495 -0.04512,0.08166 -0.04738,0.08158 -0.0021,-8.1e-5 -0.02545,-0.04017 -0.05147,-0.08911 z"
     id="pathCoeurI" />
  <path
     style="fill:#ffaaee;stroke-width:0.00728462"
     d="m 214.74277,14.675782 c -0.12241,-0.22998 -0.28929,-0.444491 -0.56454,-0.72568 -0.30379,-0.310323 -0.54599,-0.517832 -1.28941,-1.104706 -1.05206,-0.830516 -1.2982,-1.036444 -1.69677,-1.419551 -0.41391,-0.39786 -0.74045,-0.778693 -0.98445,-1.148145 -0.537,-0.813101 -0.74271,-1.6818682 -0.59998,-2.5338922 0.0734,-0.4384575 0.26045,-0.8639092 0.52641,-1.1976583 0.2703,-0.3392014 0.64899,-0.6254304 1.06475,-0.8047983 0.33458,-0.1443434 0.72307,-0.2280911 1.05585,-0.2276068 0.22862,3.41e-4 0.42473,0.012079 0.53801,0.032239 0.8775,0.1561212 1.52144,0.6631562 1.86471,1.4682636 0.0489,0.1146416 0.10637,0.2722111 0.11992,0.3286719 0.007,0.031489 0.0142,0.046668 0.018,0.040944 0.003,-0.00498 0.0177,-0.046779 0.032,-0.09286 0.0688,-0.2208469 0.20635,-0.5168126 0.32154,-0.6920393 0.39042,-0.5938587 1.00719,-0.9701368 1.7502,-1.0677607 0.12305,-0.016167 0.46414,-0.022228 0.59983,-0.010667 0.88935,0.075819 1.68439,0.5524594 2.13294,1.2787493 0.19973,0.3233869 0.32159,0.6889204 0.37524,1.1255476 0.0183,0.148807 0.0184,0.526182 2.1e-4,0.681041 -0.0731,0.621721 -0.27498,1.1499032 -0.65775,1.7205392 -0.22001,0.328004 -0.50113,0.65577 -0.88917,1.036698 -0.40999,0.402482 -0.67104,0.623396 -1.62686,1.376771 -0.88252,0.69559 -1.099,0.87946 -1.42064,1.206588 -0.27889,0.28367 -0.44447,0.497227 -0.57126,0.736829 -0.0238,0.04495 -0.0451,0.08166 -0.0474,0.08158 -0.002,-8.1e-5 -0.0255,-0.04017 -0.0515,-0.08911 z"
     id="pathCoeurU" />
</svg>
